# xmcd CD database file
#
# Track frame offsets:
#	150
#	8328
#	40971
#	70367
#	81015
#	119894
#	152203
#	158234
#	185651
#	207259
#
# Disc length: 3163 seconds
#
# Revision: 0
# Processed by: cddbd v1.5.1PL0 Copyright (c) Steve Scherf et al.
# Submitted via: CDex 1.51
#
DISCID=850c590a
DTITLE=Jukka Eskola - Jukka Eskola
DYEAR=2005
DGENRE=Jazz
TTITLE0=Introduction
TTITLE1=1974
TTITLE2=Kulo
TTITLE3=Go Time
TTITLE4=Buttercup
TTITLE5=Timber Up
TTITLE6=Selim
TTITLE7=Duudamdej
TTITLE8=Last Breath
TTITLE9=Kulo (Studio Live Take 4)(Mixed And Edited By Teddy Rok.)
EXTD=YEAR: 2005
EXTT0=
EXTT1=
EXTT2=
EXTT3=
EXTT4=
EXTT5=
EXTT6=
EXTT7=
EXTT8=
EXTT9=
PLAYORDER=
